<?xml version="1.0" encoding="UTF-8"?>
<svg width="34px" height="34px" viewBox="0 0 34 34" version="1.1" xmlns="http://www.w3.org/2000/svg" xmlns:xlink="http://www.w3.org/1999/xlink">
    <!-- Generator: Sketch 50 (54983) - http://www.bohemiancoding.com/sketch -->
    <title>account_menu</title>
    <desc>Created with Sketch.</desc>
    <defs></defs>
    <g id="account_menu" stroke="none" stroke-width="1" fill="none" fill-rule="evenodd" stroke-linejoin="round">
        <path d="M16.8,21.0159681 C18.1365336,21.0159681 19.6023872,21.2075829 21.1976048,21.5908184 C23.0083923,22.0379264 24.4742459,22.6340615 25.5952096,23.3792415 C26.9317432,24.2521667 27.6,25.2315315 27.6,26.3173653 L27.6,29 L6,29 L6,26.3173653 C6,25.2315315 6.66825679,24.2521667 8.00479042,23.3792415 C9.12575411,22.6340615 10.5916077,22.0379264 12.4023952,21.5908184 C13.9976128,21.2075829 15.4634664,21.0159681 16.8,21.0159681 Z M16.8,15.6666667 C15.8299353,15.6666667 14.9353334,15.4271481 14.1161677,14.9481038 C13.2970019,14.4690595 12.6449126,13.8250207 12.1598802,13.0159681 C11.6748479,12.2069154 11.4323353,11.3233581 11.4323353,10.3652695 C11.4323353,9.40718084 11.6748479,8.5129782 12.1598802,7.68263473 C12.6449126,6.85229126 13.2970019,6.19760719 14.1161677,5.71856287 C14.9353334,5.23951856 15.8299353,5 16.8,5 C17.7700647,5 18.6646666,5.23951856 19.4838323,5.71856287 C20.3029981,6.19760719 20.9550874,6.85229126 21.4401198,7.68263473 C21.9251521,8.5129782 22.1676647,9.40718084 22.1676647,10.3652695 C22.1676647,11.3233581 21.9251521,12.2069154 21.4401198,13.0159681 C20.9550874,13.8250207 20.3029981,14.4690595 19.4838323,14.9481038 C18.6646666,15.4271481 17.7700647,15.6666667 16.8,15.6666667 Z" id="person---material-copy-2" stroke="#1E2935" stroke-width="1.6"></path>
    </g>
</svg>